<svg xmlns="http://www.w3.org/2000/svg" width="1200" height="600" viewBox="0 0 1200 600">
  <rect width="1200" height="600" fill="#f8fafc" />
  <rect x="60" y="60" width="1080" height="160" rx="18" fill="#ffffff" stroke="#e5e7eb" />
  <text x="84" y="96" font-family="Arial, sans-serif" font-size="16" fill="#111827">Filter system (Payments)</text>

  <rect x="84" y="120" width="360" height="30" rx="8" fill="#ffffff" stroke="#e5e7eb" />
  <text x="96" y="140" font-family="Arial, sans-serif" font-size="10" fill="#9ca3af">Search by id, email, amount, etc</text>

  <rect x="460" y="120" width="220" height="30" rx="8" fill="#ffffff" stroke="#e5e7eb" />
  <rect x="468" y="125" width="54" height="20" rx="8" fill="#2563eb" />
  <text x="482" y="140" font-family="Arial, sans-serif" font-size="10" fill="#ffffff">7d</text>
  <rect x="528" y="125" width="54" height="20" rx="8" fill="#f3f4f6" />
  <text x="542" y="140" font-family="Arial, sans-serif" font-size="10" fill="#6b7280">24h</text>
  <rect x="588" y="125" width="54" height="20" rx="8" fill="#f3f4f6" />
  <text x="602" y="140" font-family="Arial, sans-serif" font-size="10" fill="#6b7280">30d</text>

  <rect x="700" y="120" width="220" height="30" rx="8" fill="#ffffff" stroke="#e5e7eb" />
  <rect x="708" y="125" width="60" height="20" rx="10" fill="#c6f6d5" />
  <text x="720" y="140" font-family="Arial, sans-serif" font-size="10" fill="#0f5132">Paid</text>
  <rect x="772" y="125" width="64" height="20" rx="10" fill="#ffe08a" />
  <text x="784" y="140" font-family="Arial, sans-serif" font-size="10" fill="#5c3200">Open</text>
  <rect x="842" y="125" width="70" height="20" rx="10" fill="#fecdd3" />
  <text x="854" y="140" font-family="Arial, sans-serif" font-size="10" fill="#7f1d1d">Refund</text>

  <rect x="940" y="120" width="80" height="30" rx="8" fill="#ffffff" stroke="#e5e7eb" />
  <rect x="1030" y="120" width="80" height="30" rx="8" fill="#ffffff" stroke="#e5e7eb" />
  <text x="950" y="140" font-family="Arial, sans-serif" font-size="10" fill="#9ca3af">From</text>
  <text x="1040" y="140" font-family="Arial, sans-serif" font-size="10" fill="#9ca3af">To</text>

  <rect x="84" y="170" width="420" height="24" rx="8" fill="#f9fafb" stroke="#e5e7eb" />
  <text x="96" y="186" font-family="Arial, sans-serif" font-size="10" fill="#6b7280">Active filters: Paid, 7d, Mar 1-7</text>

  <line x1="120" y1="250" x2="120" y2="330" stroke="#94a3b8" stroke-width="2" />
  <rect x="40" y="330" width="200" height="80" rx="12" fill="#ffffff" stroke="#cbd5f5" />
  <text x="52" y="356" font-family="Arial, sans-serif" font-size="11" fill="#1f2937">Search = multi-field</text>
  <text x="52" y="376" font-family="Arial, sans-serif" font-size="10" fill="#6b7280">Id, email, amount, etc.</text>

  <line x1="520" y1="250" x2="520" y2="330" stroke="#94a3b8" stroke-width="2" />
  <rect x="420" y="330" width="200" height="80" rx="12" fill="#ffffff" stroke="#cbd5f5" />
  <text x="432" y="356" font-family="Arial, sans-serif" font-size="11" fill="#1f2937">Quick ranges</text>
  <text x="432" y="376" font-family="Arial, sans-serif" font-size="10" fill="#6b7280">24h, 7d, 30d</text>

  <line x1="820" y1="250" x2="820" y2="330" stroke="#94a3b8" stroke-width="2" />
  <rect x="720" y="330" width="240" height="80" rx="12" fill="#ffffff" stroke="#cbd5f5" />
  <text x="732" y="356" font-family="Arial, sans-serif" font-size="11" fill="#1f2937">Status chips</text>
  <text x="732" y="376" font-family="Arial, sans-serif" font-size="10" fill="#6b7280">Visual states + multi-select</text>

  <line x1="1040" y1="250" x2="1040" y2="330" stroke="#94a3b8" stroke-width="2" />
  <rect x="980" y="330" width="180" height="80" rx="12" fill="#ffffff" stroke="#cbd5f5" />
  <text x="992" y="356" font-family="Arial, sans-serif" font-size="11" fill="#1f2937">Date range</text>
  <text x="992" y="376" font-family="Arial, sans-serif" font-size="10" fill="#6b7280">Custom from/to</text>
</svg>
