<svg width="1200" height="720" viewBox="0 0 1200 720" xmlns="http://www.w3.org/2000/svg">
  <defs>
    <style>
      .title { font: 600 22px 'IBM Plex Sans', Arial, sans-serif; fill: #e7ecef; }
      .label { font: 500 14px 'IBM Plex Sans', Arial, sans-serif; fill: #a7b0ba; }
      .value { font: 700 20px 'IBM Plex Mono', Menlo, monospace; fill: #f6f8fa; }
      .nav { font: 500 13px 'IBM Plex Sans', Arial, sans-serif; fill: #c7d0da; }
      .chip { fill: #1b2028; stroke: #2a313a; stroke-width: 1; }
      .card { fill: #171b22; stroke: #2a313a; stroke-width: 1; rx: 16; }
      .muted { fill: #2a313a; }
      .accent { fill: #45d0c1; }
      .grid { stroke: #20252d; stroke-width: 1; }
    </style>
  </defs>

  <rect width="1200" height="720" fill="#0f1115"/>

  <rect x="0" y="0" width="1200" height="64" fill="#141821"/>
  <text x="24" y="40" class="title">Zettahash Hashboard</text>
  <rect x="940" y="18" width="220" height="28" class="chip" rx="14"/>
  <text x="960" y="37" class="label">Wallet: 0x92b4...f4</text>

  <rect x="20" y="92" width="190" height="600" class="card"/>
  <text x="40" y="128" class="nav">Overview</text>
  <text x="40" y="160" class="nav">Mining</text>
  <text x="40" y="192" class="nav">Treasury</text>
  <text x="40" y="224" class="nav">Market</text>
  <text x="40" y="256" class="nav">Governance</text>
  <text x="40" y="288" class="nav">Community</text>

  <text x="240" y="122" class="title">Overview</text>
  <text x="240" y="146" class="label">Live mining and treasury summary</text>

  <rect x="240" y="170" width="300" height="120" class="card"/>
  <text x="260" y="206" class="label">Project Hashrate</text>
  <text x="260" y="236" class="value">28,450 TH/s</text>
  <text x="260" y="262" class="label">+4.2% week</text>

  <rect x="560" y="170" width="300" height="120" class="card"/>
  <text x="580" y="206" class="label">Daily Revenue</text>
  <text x="580" y="236" class="value">$146,200</text>
  <text x="580" y="262" class="label">Stable trend</text>

  <rect x="880" y="170" width="280" height="120" class="card"/>
  <text x="900" y="206" class="label">Treasury Total</text>
  <text x="900" y="236" class="value">$12.4M</text>
  <text x="900" y="262" class="label">Core wallets</text>

  <rect x="240" y="310" width="620" height="250" class="card"/>
  <text x="260" y="344" class="label">Hashrate Trend (30d)</text>
  <line x1="260" y1="520" x2="840" y2="520" class="grid"/>
  <line x1="260" y1="480" x2="840" y2="480" class="grid"/>
  <line x1="260" y1="440" x2="840" y2="440" class="grid"/>
  <path d="M260 510 L320 500 L380 492 L440 468 L500 470 L560 456 L620 460 L680 440 L740 430 L800 418 L840 412" fill="none" stroke="#45d0c1" stroke-width="3"/>

  <rect x="880" y="310" width="280" height="250" class="card"/>
  <text x="900" y="344" class="label">Governance Snapshot</text>
  <rect x="900" y="370" width="240" height="56" class="chip" rx="12"/>
  <text x="914" y="402" class="label">Proposal 18: Treasury policy</text>
  <rect x="900" y="438" width="240" height="56" class="chip" rx="12"/>
  <text x="914" y="470" class="label">Proposal 19: New site vote</text>

  <rect x="240" y="580" width="920" height="96" class="card"/>
  <text x="260" y="616" class="label">Community</text>
  <text x="260" y="644" class="value">Discord, Telegram, Forum</text>
</svg>
