<svg xmlns="http://www.w3.org/2000/svg" width="1200" height="630" viewBox="0 0 1200 630">
<rect width="1200" height="630" fill="#0C0C0C"/>
<line x1="0" y1="0" x2="0" y2="630" stroke="#1A1A1A" stroke-width="1"/>
<line x1="48" y1="0" x2="48" y2="630" stroke="#1A1A1A" stroke-width="1"/>
<line x1="96" y1="0" x2="96" y2="630" stroke="#1A1A1A" stroke-width="1"/>
<line x1="144" y1="0" x2="144" y2="630" stroke="#1A1A1A" stroke-width="1"/>
<line x1="192" y1="0" x2="192" y2="630" stroke="#1A1A1A" stroke-width="1"/>
<line x1="240" y1="0" x2="240" y2="630" stroke="#1A1A1A" stroke-width="1"/>
<line x1="288" y1="0" x2="288" y2="630" stroke="#1A1A1A" stroke-width="1"/>
<line x1="336" y1="0" x2="336" y2="630" stroke="#1A1A1A" stroke-width="1"/>
<line x1="384" y1="0" x2="384" y2="630" stroke="#1A1A1A" stroke-width="1"/>
<line x1="432" y1="0" x2="432" y2="630" stroke="#1A1A1A" stroke-width="1"/>
<line x1="480" y1="0" x2="480" y2="630" stroke="#1A1A1A" stroke-width="1"/>
<line x1="528" y1="0" x2="528" y2="630" stroke="#1A1A1A" stroke-width="1"/>
<line x1="576" y1="0" x2="576" y2="630" stroke="#1A1A1A" stroke-width="1"/>
<line x1="624" y1="0" x2="624" y2="630" stroke="#1A1A1A" stroke-width="1"/>
<line x1="672" y1="0" x2="672" y2="630" stroke="#1A1A1A" stroke-width="1"/>
<line x1="720" y1="0" x2="720" y2="630" stroke="#1A1A1A" stroke-width="1"/>
<line x1="768" y1="0" x2="768" y2="630" stroke="#1A1A1A" stroke-width="1"/>
<line x1="816" y1="0" x2="816" y2="630" stroke="#1A1A1A" stroke-width="1"/>
<line x1="864" y1="0" x2="864" y2="630" stroke="#1A1A1A" stroke-width="1"/>
<line x1="912" y1="0" x2="912" y2="630" stroke="#1A1A1A" stroke-width="1"/>
<line x1="960" y1="0" x2="960" y2="630" stroke="#1A1A1A" stroke-width="1"/>
<line x1="1008" y1="0" x2="1008" y2="630" stroke="#1A1A1A" stroke-width="1"/>
<line x1="1056" y1="0" x2="1056" y2="630" stroke="#1A1A1A" stroke-width="1"/>
<line x1="1104" y1="0" x2="1104" y2="630" stroke="#1A1A1A" stroke-width="1"/>
<line x1="1152" y1="0" x2="1152" y2="630" stroke="#1A1A1A" stroke-width="1"/>
<line x1="1200" y1="0" x2="1200" y2="630" stroke="#1A1A1A" stroke-width="1"/>
<line x1="0" y1="0" x2="1200" y2="0" stroke="#1A1A1A" stroke-width="1"/>
<line x1="0" y1="48" x2="1200" y2="48" stroke="#1A1A1A" stroke-width="1"/>
<line x1="0" y1="96" x2="1200" y2="96" stroke="#1A1A1A" stroke-width="1"/>
<line x1="0" y1="144" x2="1200" y2="144" stroke="#1A1A1A" stroke-width="1"/>
<line x1="0" y1="192" x2="1200" y2="192" stroke="#1A1A1A" stroke-width="1"/>
<line x1="0" y1="240" x2="1200" y2="240" stroke="#1A1A1A" stroke-width="1"/>
<line x1="0" y1="288" x2="1200" y2="288" stroke="#1A1A1A" stroke-width="1"/>
<line x1="0" y1="336" x2="1200" y2="336" stroke="#1A1A1A" stroke-width="1"/>
<line x1="0" y1="384" x2="1200" y2="384" stroke="#1A1A1A" stroke-width="1"/>
<line x1="0" y1="432" x2="1200" y2="432" stroke="#1A1A1A" stroke-width="1"/>
<line x1="0" y1="480" x2="1200" y2="480" stroke="#1A1A1A" stroke-width="1"/>
<line x1="0" y1="528" x2="1200" y2="528" stroke="#1A1A1A" stroke-width="1"/>
<line x1="0" y1="576" x2="1200" y2="576" stroke="#1A1A1A" stroke-width="1"/>
<line x1="0" y1="624" x2="1200" y2="624" stroke="#1A1A1A" stroke-width="1"/>
<rect x="134.60" y="249.00" width="132" height="132" fill="#0C0C0C" stroke="#1A1A1A" stroke-width="2"/>
<polyline points="19.20,70.80 34.80,70.80 43.12,51.60 48.32,85.20 53.52,42.00 60.80,80.40 71.20,70.80 86.80,70.80 95.12,56.40 99.28,73.68 107.60,70.80 112.80,70.80" fill="none" stroke="#FF5C2A" stroke-width="10" stroke-linejoin="round" stroke-linecap="round" transform="translate(134.60,249.00)"/>
<text x="290.60" y="347.20" font-family="Space Grotesk, Cantarell, Arial, sans-serif" font-size="92" fill="#F4F1EC">Pulse</text>
<text x="769.00" y="347.20" font-family="Space Grotesk, Cantarell, Arial, sans-serif" font-size="92" fill="#FF5C2A">Ops</text>
</svg>