<svg xmlns="http://www.w3.org/2000/svg" width="800" height="520" viewBox="0 0 800 520">
  <defs>
    <linearGradient id="bg" x1="0" x2="1" y1="0" y2="1">
      <stop offset="0%" stop-color="#f5f7fb" />
      <stop offset="100%" stop-color="#fef6ea" />
    </linearGradient>
  </defs>
  <rect width="800" height="520" fill="url(#bg)" />

  <rect x="48" y="40" width="704" height="440" rx="20" fill="#ffffff" stroke="#e5e7eb" />
  <text x="80" y="84" font-family="Arial, sans-serif" font-size="18" fill="#111827">Recent payments</text>
  <text x="80" y="108" font-family="Arial, sans-serif" font-size="12" fill="#6b7280">Stay up to date with the latest invoices created across your store.</text>
  <rect x="586" y="74" width="136" height="30" rx="10" fill="#ffffff" stroke="#2563eb" />
  <text x="604" y="94" font-family="Arial, sans-serif" font-size="11" fill="#2563eb">View all payments</text>

  <line x1="80" y1="134" x2="720" y2="134" stroke="#f3f4f6" />

  <circle cx="94" cy="176" r="14" fill="#6366f1" />
  <text x="122" y="180" font-family="Arial, sans-serif" font-size="13" fill="#111827">Acme Co.</text>
  <text x="520" y="180" font-family="Arial, sans-serif" font-size="13" fill="#111827">$2,480 USDC</text>
  <rect x="640" y="166" width="88" height="22" rx="10" fill="#c6f6d5" />
  <text x="662" y="181" font-family="Arial, sans-serif" font-size="11" fill="#0f5132">Completed</text>
  <text x="122" y="202" font-family="Arial, sans-serif" font-size="11" fill="#6b7280">Mar 7, 2026</text>

  <line x1="80" y1="222" x2="720" y2="222" stroke="#f3f4f6" />

  <circle cx="94" cy="264" r="14" fill="#14b8a6" />
  <text x="122" y="268" font-family="Arial, sans-serif" font-size="13" fill="#111827">Northwind</text>
  <text x="520" y="268" font-family="Arial, sans-serif" font-size="13" fill="#111827">$540 USDC</text>
  <rect x="658" y="254" width="70" height="22" rx="10" fill="#ffe08a" />
  <text x="676" y="269" font-family="Arial, sans-serif" font-size="11" fill="#5c3200">Open</text>
  <text x="122" y="290" font-family="Arial, sans-serif" font-size="11" fill="#6b7280">Mar 6, 2026</text>

  <line x1="80" y1="310" x2="720" y2="310" stroke="#f3f4f6" />

  <circle cx="94" cy="352" r="14" fill="#fb7185" />
  <text x="122" y="356" font-family="Arial, sans-serif" font-size="13" fill="#111827">Ocean Studio</text>
  <text x="520" y="356" font-family="Arial, sans-serif" font-size="13" fill="#111827">$120 USDC</text>
  <rect x="644" y="342" width="84" height="22" rx="10" fill="#fecdd3" />
  <text x="664" y="357" font-family="Arial, sans-serif" font-size="11" fill="#7f1d1d">Refund</text>
  <text x="122" y="378" font-family="Arial, sans-serif" font-size="11" fill="#6b7280">Mar 5, 2026</text>
</svg>
